<svg width="30" height="30" viewBox="0 0 30 30" fill="none" xmlns="http://www.w3.org/2000/svg">
<path d="M11.25 15L27.5 15M27.5 15L23.125 11.25M27.5 15L23.125 18.75" stroke="#151515" stroke-width="1.5" stroke-linecap="round" stroke-linejoin="round"/>
<path d="M18.7476 8.75C18.7324 6.03122 18.6119 4.55883 17.6514 3.59835C16.553 2.5 14.7853 2.5 11.2497 2.5L9.99973 2.5C6.4642 2.5 4.69643 2.5 3.59808 3.59835C2.49973 4.6967 2.49973 6.46447 2.49973 10L2.49973 20C2.49973 23.5355 2.49973 25.3033 3.59808 26.4017C4.55859 27.3622 6.03105 27.4827 8.75 27.4978M18.7476 21.25C18.7324 23.9688 18.6119 25.4412 17.6514 26.4017C16.8498 27.2032 15.6916 27.4198 13.75 27.4783" stroke="#151515" stroke-width="1.5" stroke-linecap="round"/>
</svg>
