<svg width="114" height="70" viewBox="0 0 114 70" fill="none" xmlns="http://www.w3.org/2000/svg">
<g clip-path="url(#clip0_126_6)">
<path d="M79.9776 0.136719C88.0329 0.219948 96.4614 3.60071 102.35 9.10627C109.364 15.6632 113.596 24.1877 113.902 33.8702C114.197 43.244 110.959 52.133 104.517 58.9791C104.318 59.1871 104.117 59.3926 103.913 59.5957C103.71 59.7988 103.504 59.9993 103.295 60.1974C103.087 60.3954 102.876 60.591 102.662 60.784C102.449 60.9769 102.233 61.1672 102.015 61.3549C101.798 61.5426 101.577 61.7276 101.355 61.9099C101.133 62.0922 100.908 62.2718 100.681 62.4486C100.455 62.6255 100.226 62.7995 99.9948 62.9708C99.7639 63.1421 99.5308 63.3106 99.2957 63.4762C99.0607 63.6417 98.8237 63.8045 98.5846 63.9643C98.3456 64.1242 98.1047 64.2811 97.8618 64.4351C97.619 64.589 97.3744 64.74 97.128 64.8879C96.8815 65.0359 96.6333 65.181 96.3832 65.323C96.1332 65.4649 95.8816 65.6037 95.6282 65.7396C95.3749 65.8754 95.1199 66.0081 94.8632 66.1377C94.6066 66.2673 94.3485 66.3938 94.0888 66.5172C93.8292 66.6405 93.5681 66.7607 93.3055 66.8777C93.043 66.9946 92.779 67.1083 92.5137 67.2188C92.2484 67.3295 91.9817 67.4368 91.7137 67.5409C91.4458 67.6449 91.1767 67.7457 90.9063 67.8431C90.6359 67.9406 90.3643 68.0348 90.0916 68.1256C89.8189 68.2165 89.5453 68.3041 89.2706 68.3884C88.9958 68.4726 88.72 68.5534 88.4431 68.6309C88.1664 68.7084 87.8888 68.7825 87.6102 68.8533C87.3316 68.924 87.0522 68.9913 86.7721 69.0552C86.4919 69.1192 86.211 69.1797 85.9293 69.2368C85.6477 69.2938 85.3654 69.3475 85.0825 69.3977C84.7994 69.4479 84.5159 69.4947 84.2318 69.538C83.9478 69.5814 83.6632 69.6212 83.3782 69.6576C83.0931 69.6939 82.8076 69.7268 82.5217 69.7562C82.2358 69.7857 81.9496 69.8117 81.6631 69.8341C81.3766 69.8566 81.09 69.8755 80.8031 69.8909C80.5162 69.9064 80.2291 69.9184 79.9418 69.9269C70.1929 70.2022 60.7204 66.8809 53.5956 60.119C49.7074 56.513 46.4034 51.6982 44.6182 46.6862L57.3639 46.6559C58.059 47.7109 58.766 48.7594 59.569 49.7361C63.8155 54.9007 69.6557 58.0157 76.3167 58.6343C76.5164 58.6515 76.7162 58.6663 76.9163 58.6787C77.1164 58.6909 77.3166 58.7008 77.5169 58.7083C77.7172 58.7158 77.9176 58.7208 78.118 58.7234C78.3184 58.7259 78.5188 58.7261 78.7192 58.7237C78.9197 58.7214 79.1201 58.7166 79.3205 58.7095C79.5207 58.7022 79.7209 58.6926 79.9211 58.6805C80.1211 58.6684 80.3209 58.6539 80.5206 58.637C80.7205 58.62 80.92 58.6006 81.1192 58.5787C81.3185 58.5569 81.5174 58.5327 81.7161 58.506C81.9147 58.4793 82.113 58.4502 82.311 58.4186C82.509 58.3871 82.7065 58.3532 82.9036 58.3168C83.1007 58.2805 83.2974 58.2418 83.4937 58.2007C83.6898 58.1595 83.8854 58.116 84.0806 58.0701C84.2758 58.0242 84.4704 57.9759 84.6643 57.9252C84.8583 57.8746 85.0516 57.8216 85.2443 57.7663C85.437 57.7109 85.6289 57.6532 85.8201 57.5932C86.0115 57.5331 86.202 57.4707 86.3916 57.4061C86.5814 57.3413 86.7704 57.2743 86.9585 57.205C87.1467 57.1358 87.334 57.0642 87.5203 56.9903C87.7067 56.9164 87.8922 56.8402 88.0767 56.7619C88.2613 56.6835 88.4448 56.6029 88.6273 56.5201C88.81 56.4372 88.9916 56.3521 89.1721 56.2648C89.3526 56.1775 89.532 56.088 89.7103 55.9964C89.8886 55.9047 90.0658 55.8109 90.2419 55.7149C90.418 55.6189 90.5929 55.5207 90.7666 55.4205C90.9402 55.3202 91.1126 55.2178 91.2838 55.1133C91.4551 55.009 91.625 54.9025 91.7936 54.7938C91.9621 54.6852 92.1293 54.5746 92.2952 54.4619C92.4612 54.3492 92.6257 54.2344 92.7888 54.1178C92.952 54.0011 93.1137 53.8824 93.2739 53.7617C93.4342 53.6412 93.5929 53.5186 93.7502 53.3942C93.9074 53.2696 94.0631 53.1431 94.2174 53.0149C94.3632 52.892 94.5076 52.7675 94.6505 52.6411C94.7933 52.5148 94.9346 52.3868 95.0742 52.2569C95.2139 52.1271 95.3521 51.9956 95.4886 51.8624C95.6251 51.7292 95.7599 51.5943 95.8931 51.4578C96.0263 51.3212 96.1577 51.1831 96.2874 51.0433C96.4172 50.9036 96.5453 50.7623 96.6717 50.6193C96.7981 50.4765 96.9226 50.3321 97.0453 50.1861C97.1681 50.0401 97.2891 49.8927 97.4084 49.7438C97.5275 49.5947 97.6448 49.4444 97.7604 49.2926C97.8758 49.1408 97.9894 48.9876 98.1012 48.8329C98.213 48.6783 98.3228 48.5224 98.4307 48.365C98.5387 48.2076 98.6447 48.049 98.7488 47.8891C98.8527 47.7292 98.9548 47.5681 99.0548 47.4056C99.155 47.2432 99.2531 47.0795 99.3492 46.9146C99.4453 46.7499 99.5393 46.5838 99.6314 46.4166C99.7234 46.2495 99.8133 46.0812 99.9011 45.9119C99.9891 45.7425 100.075 45.5721 100.159 45.4006C100.242 45.2291 100.324 45.0566 100.403 44.8831C100.483 44.7096 100.56 44.5352 100.636 44.3598C100.711 44.1844 100.784 44.0081 100.855 43.831C100.926 43.6538 100.995 43.4758 101.061 43.2969C101.128 43.1181 101.192 42.9384 101.254 42.7578C101.316 42.5774 101.376 42.3963 101.434 42.2144C101.492 42.0324 101.547 41.8498 101.6 41.6665C101.654 41.4833 101.705 41.2994 101.753 41.1149C101.802 40.9303 101.848 40.7451 101.893 40.5594C101.937 40.3737 101.979 40.1876 102.018 40.0009C102.058 39.8141 102.095 39.6269 102.13 39.4394C102.165 39.2517 102.198 39.0636 102.229 38.8752C102.259 38.6867 102.287 38.498 102.313 38.3088C102.339 38.1197 102.362 37.9303 102.384 37.7406C102.405 37.5508 102.424 37.3609 102.44 37.1707C102.457 36.9787 102.472 36.7865 102.485 36.5942C102.497 36.4019 102.507 36.2095 102.515 36.0169C102.522 35.8242 102.528 35.6315 102.53 35.4388C102.533 35.2461 102.534 35.0534 102.532 34.8606C102.53 34.6679 102.526 34.4752 102.519 34.2827C102.512 34.09 102.503 33.8974 102.492 33.7051C102.481 33.5126 102.467 33.3203 102.451 33.1283C102.434 32.9363 102.416 32.7444 102.395 32.5527C102.374 32.3612 102.351 32.1699 102.325 31.9788C102.299 31.7878 102.271 31.5971 102.241 31.4068C102.211 31.2164 102.178 31.0265 102.143 30.8371C102.108 30.6475 102.07 30.4584 102.031 30.2699C101.991 30.0813 101.949 29.8933 101.904 29.7057C101.86 29.5181 101.813 29.3312 101.764 29.1449C101.715 28.9584 101.664 28.7726 101.61 28.5875C101.557 28.4024 101.501 28.218 101.443 28.0342C101.384 27.8506 101.324 27.6677 101.261 27.4855C101.199 27.3031 101.134 27.1217 101.066 26.9412C100.999 26.7606 100.93 26.5808 100.858 26.402C100.786 26.223 100.713 26.045 100.637 25.8681C100.561 25.691 100.482 25.5149 100.402 25.3397C100.321 25.1647 100.239 24.9906 100.154 24.8176C100.07 24.6445 99.9827 24.4726 99.8936 24.3016C99.8047 24.1307 99.7136 23.9609 99.6205 23.7922C99.5273 23.6236 99.4321 23.4562 99.3348 23.29C99.2374 23.1236 99.1381 22.9586 99.0368 22.7948C98.9354 22.631 98.832 22.4685 98.7265 22.3071C98.6211 22.1459 98.5137 21.986 98.4043 21.8275C98.2949 21.6689 98.1836 21.5117 98.0703 21.3559C97.9571 21.2001 97.8419 21.0457 97.7248 20.8927C97.6078 20.7398 97.4889 20.5883 97.3681 20.4384C97.2472 20.2883 97.1245 20.1399 97 19.9929C92.5909 14.7513 86.6471 12.0699 79.9033 11.5044C79.9472 7.71531 79.972 3.9261 79.9776 0.136719Z" fill="#EAE0FF"/>
<path d="M76.7676 0.119668C77.0017 0.0987351 77.1859 0.072611 77.4114 0.160865C77.6133 0.827874 77.4766 10.0488 77.4762 11.5493C72.6125 11.7705 68.8983 13.2264 64.8411 15.8162C63.4076 14.5748 62.0346 13.2495 60.6479 11.9555C59.1179 10.5502 57.616 9.09759 56.0337 7.75185C60.2121 4.36137 65.7148 1.87754 70.9725 0.812134C72.8863 0.424454 74.8216 0.243592 76.7676 0.119668Z" fill="#EAE0FF"/>
<path d="M54.3734 9.13721C55.4072 10.218 56.5284 11.2009 57.616 12.2258C59.4069 13.9266 61.2068 15.6178 63.0157 17.2994C61.0053 19.028 59.4452 21.2228 58.0215 23.4381L53.1974 23.4341L44.5552 23.4179C46.2242 18.4645 50.3892 12.5007 54.3734 9.13721Z" fill="#EAE0FF"/>
<path d="M14.4401 28.1637C16.3453 27.9885 18.2354 28.2246 19.8215 29.3744C21.1211 30.3168 22.036 31.6625 22.2899 33.2599C22.5799 35.0843 22.2971 36.9262 21.1947 38.4359C20.0662 39.9811 18.399 40.7468 16.5469 41.0206C14.6771 41.1731 12.7505 40.8973 11.2035 39.7602C11.1193 39.6988 11.0368 39.6354 10.9559 39.57C10.8749 39.5044 10.7955 39.437 10.7179 39.3677C10.6402 39.2984 10.5643 39.2271 10.49 39.1538C10.4159 39.0808 10.3436 39.006 10.2731 38.9293C10.2026 38.8526 10.1341 38.7741 10.0675 38.694C10.0008 38.6139 9.9362 38.5323 9.87357 38.449C9.81094 38.3657 9.75043 38.281 9.69204 38.1948C9.63353 38.1085 9.5772 38.0208 9.52305 37.9319C9.46889 37.8429 9.41696 37.7526 9.36726 37.6609C9.31756 37.5694 9.27014 37.4766 9.225 37.3827C9.17987 37.2887 9.13709 37.1937 9.09663 37.0977C9.05618 37.0017 9.01807 36.9047 8.9823 36.8068C8.94664 36.7088 8.91337 36.6101 8.88251 36.5106C8.85164 36.411 8.82322 36.3107 8.79726 36.2098C8.77129 36.1088 8.74789 36.0072 8.72705 35.9052C8.7061 35.8031 8.68766 35.7004 8.67172 35.5974C8.41514 33.8774 8.80311 32.1353 9.84833 30.7391C10.9758 29.2334 12.6092 28.4321 14.4401 28.1637Z" fill="#151515"/>
<path d="M14.9439 30.2766C14.9915 30.27 15.0392 30.2642 15.087 30.2593C15.1347 30.2543 15.1825 30.2501 15.2304 30.2468C15.2783 30.2433 15.3263 30.2407 15.3743 30.2389C15.4224 30.2371 15.4704 30.2361 15.5184 30.2359C15.5665 30.2357 15.6144 30.2363 15.6623 30.2377C15.7104 30.2391 15.7583 30.2412 15.8063 30.2441C15.8543 30.2471 15.9022 30.2508 15.95 30.2553C15.9978 30.2599 16.0455 30.2652 16.0931 30.2714C16.1408 30.2775 16.1883 30.2844 16.2357 30.2922C16.2832 30.2999 16.3305 30.3083 16.3776 30.3174C16.4247 30.3267 16.4717 30.3368 16.5185 30.3476C16.5653 30.3584 16.6119 30.37 16.6583 30.3824C16.7047 30.3947 16.7509 30.4078 16.7968 30.4216C16.8428 30.4356 16.8886 30.4502 16.9341 30.4656C16.9796 30.4809 17.0249 30.4971 17.0698 30.514C17.1148 30.5309 17.1595 30.5485 17.2038 30.567C17.2483 30.5853 17.2924 30.6044 17.3361 30.6242C17.3799 30.644 17.4233 30.6645 17.4665 30.6857C17.5095 30.707 17.5522 30.729 17.5947 30.7517C17.637 30.7743 17.679 30.7977 17.7205 30.8218C17.7621 30.8458 17.8033 30.8706 17.8441 30.896C17.8848 30.9214 17.9252 30.9474 17.9651 30.9742C18.0051 31.001 18.0446 31.0284 18.0836 31.0565C18.1226 31.0846 18.1611 31.1133 18.1991 31.1425C18.2372 31.1719 18.2748 31.2019 18.3119 31.2325C18.349 31.2631 18.3856 31.2943 18.4216 31.3261C18.4577 31.3578 18.4932 31.3902 18.5282 31.4232C18.5632 31.4561 18.5976 31.4896 18.6315 31.5237C18.6654 31.5578 18.6987 31.5925 18.7315 31.6277C18.7642 31.6628 18.7964 31.6986 18.8279 31.7349C18.8595 31.7711 18.8904 31.8079 18.9207 31.8452C18.9511 31.8825 18.9809 31.9203 19.01 31.9586C19.0391 31.9969 19.0675 32.0356 19.0954 32.0748C19.1232 32.114 19.1504 32.1537 19.177 32.1939C19.2035 32.234 19.2293 32.2745 19.2545 32.3155C19.2797 32.3564 19.3042 32.3978 19.3281 32.4395C19.3518 32.4813 19.3749 32.5234 19.3974 32.566C19.4198 32.6085 19.4416 32.6514 19.4626 32.6948C19.4836 32.738 19.5039 32.7816 19.5235 32.8255C19.5431 32.8695 19.562 32.9138 19.5801 32.9583C19.5982 33.0029 19.6156 33.0477 19.6323 33.0928C19.6489 33.1379 19.6648 33.1833 19.6799 33.229C19.6951 33.2746 19.7095 33.3205 19.7232 33.3666C19.7368 33.4128 19.7497 33.4592 19.7618 33.5058C19.7739 33.5523 19.7852 33.5991 19.7958 33.646C19.8063 33.693 19.8162 33.7401 19.8252 33.7873C19.8342 33.8345 19.8425 33.8819 19.8499 33.9295C19.8574 33.977 19.8641 34.0247 19.87 34.0725C19.8759 34.1202 19.881 34.168 19.8852 34.216C19.8895 34.2639 19.8931 34.3119 19.8959 34.3599C19.8986 34.4079 19.9005 34.4559 19.9017 34.504C19.9029 34.5522 19.9032 34.6003 19.9027 34.6484C19.9023 34.6965 19.9011 34.7446 19.8991 34.7928C19.8971 34.8408 19.8942 34.8888 19.8905 34.9368C19.887 34.9848 19.8826 35.0327 19.8775 35.0805C19.8723 35.1284 19.8663 35.1761 19.8596 35.2238C19.8528 35.2714 19.8452 35.3189 19.8369 35.3663C19.8286 35.4136 19.8196 35.4609 19.8096 35.508C19.7997 35.5551 19.7891 35.602 19.7777 35.6487C19.7662 35.6954 19.754 35.742 19.7411 35.7883C19.7282 35.8347 19.7145 35.8808 19.7 35.9266C19.6855 35.9725 19.6703 36.0181 19.6543 36.0635C19.6383 36.1089 19.6216 36.154 19.6042 36.1988C19.5867 36.2437 19.5685 36.2882 19.5495 36.3324C19.5306 36.3766 19.5109 36.4205 19.4905 36.464C19.4701 36.5077 19.4491 36.551 19.4273 36.5938C19.4055 36.6367 19.383 36.6792 19.3598 36.7213C19.3366 36.7635 19.3127 36.8052 19.2881 36.8465C19.2636 36.8878 19.2384 36.9288 19.2124 36.9693C19.1864 37.0098 19.1598 37.0499 19.1327 37.0895C19.1054 37.1292 19.0774 37.1683 19.0489 37.2069C19.0204 37.2457 18.9912 37.2839 18.9615 37.3216C18.9316 37.3594 18.9012 37.3966 18.8702 37.4333C18.8392 37.4701 18.8076 37.5063 18.7753 37.542C18.7431 37.5777 18.7103 37.6129 18.677 37.6475C18.6436 37.682 18.6096 37.716 18.5752 37.7495C18.5406 37.783 18.5056 37.8159 18.4701 37.8483C18.4345 37.8806 18.3984 37.9123 18.3617 37.9434C18.3251 37.9746 18.288 38.0051 18.2504 38.035C18.2127 38.0649 18.1746 38.0942 18.1361 38.1228C18.0974 38.1515 18.0583 38.1795 18.0189 38.2068C17.9793 38.2342 17.9394 38.2609 17.899 38.2869C17.8586 38.3129 17.8178 38.3382 17.7765 38.3629C17.7353 38.3876 17.6937 38.4116 17.6517 38.4349C17.6096 38.4582 17.5672 38.4807 17.5245 38.5026C17.4817 38.5246 17.4385 38.5458 17.3951 38.5662C17.3516 38.5867 17.3078 38.6064 17.2637 38.6255C17.2196 38.6445 17.1752 38.6627 17.1305 38.6803C17.0858 38.6979 17.0408 38.7148 16.9954 38.7308C16.9502 38.7468 16.9046 38.7621 16.8588 38.7767C16.8132 38.7912 16.7672 38.805 16.7209 38.8181C16.6747 38.8311 16.6282 38.8434 16.5815 38.8549C16.5349 38.8664 16.4881 38.8771 16.4411 38.8871C16.3941 38.897 16.347 38.9062 16.2997 38.9145C16.2525 38.923 16.205 38.9307 16.1575 38.9375C16.1099 38.9443 16.0622 38.9503 16.0145 38.9556C15.9441 38.9633 15.8736 38.9693 15.8029 38.9737C15.7323 38.9779 15.6615 38.9805 15.5906 38.9814C15.5199 38.9823 15.4491 38.9814 15.3783 38.9787C15.3076 38.9761 15.2369 38.9718 15.1664 38.9658C15.0957 38.9598 15.0254 38.952 14.9553 38.9425C14.8851 38.933 14.8151 38.9219 14.7455 38.909C14.6758 38.8961 14.6066 38.8815 14.5377 38.8653C14.4687 38.849 14.4002 38.831 14.3321 38.8114C14.2641 38.7919 14.1966 38.7706 14.1295 38.7478C14.0626 38.7249 13.9961 38.7004 13.9303 38.6742C13.8644 38.648 13.7992 38.6202 13.7347 38.591C13.6703 38.5616 13.6066 38.5308 13.5435 38.4984C13.4805 38.466 13.4184 38.4321 13.3571 38.3966C13.2957 38.3611 13.2352 38.3242 13.1757 38.2859C13.1162 38.2475 13.0577 38.2076 13.0001 38.1663C12.9424 38.125 12.8858 38.0824 12.8302 38.0384C12.7747 37.9944 12.7203 37.9491 12.6669 37.9024C12.6136 37.8557 12.5615 37.8078 12.5105 37.7585C12.4594 37.7093 12.4096 37.6589 12.361 37.6073C12.3125 37.5556 12.2653 37.5028 12.2193 37.4489C12.1733 37.395 12.1286 37.3399 12.0852 37.2838C12.042 37.2276 12.0001 37.1705 11.9595 37.1125C11.919 37.0542 11.8798 36.995 11.8422 36.9349C11.8045 36.8749 11.7683 36.8139 11.7337 36.7521C11.6989 36.6902 11.6657 36.6276 11.6341 36.5642C11.6024 36.5008 11.5723 36.4366 11.5438 36.3716C11.5152 36.3066 11.4882 36.241 11.4629 36.1748C11.4375 36.1086 11.4138 36.0418 11.3917 35.9744C11.3695 35.9069 11.3491 35.8391 11.3303 35.7707C11.3115 35.7023 11.2943 35.6335 11.2789 35.5643C11.2634 35.495 11.2495 35.4255 11.2374 35.3556C11.2254 35.2857 11.215 35.2155 11.2063 35.1451C11.1976 35.0746 11.1907 35.0041 11.1854 34.9334C11.1802 34.8626 11.1766 34.7918 11.1747 34.7209C11.1729 34.6499 11.1729 34.579 11.1746 34.5081C11.1761 34.4372 11.1795 34.3663 11.1846 34.2956C11.1896 34.2248 11.1964 34.1542 11.205 34.0837C11.2134 34.0133 11.2236 33.9431 11.2356 33.8732C11.2475 33.8033 11.2611 33.7337 11.2763 33.6644C11.2916 33.5952 11.3086 33.5263 11.3272 33.4579C11.3459 33.3893 11.3662 33.3214 11.3882 33.2539C11.4101 33.1865 11.4337 33.1196 11.4589 33.0533C11.4841 32.987 11.5108 32.9213 11.5391 32.8564C11.5675 32.7914 11.5975 32.7271 11.629 32.6636C11.6605 32.6001 11.6935 32.5373 11.728 32.4754C11.7625 32.4134 11.7986 32.3524 11.8362 32.2922C11.8737 32.232 11.9127 32.1728 11.953 32.1145C11.9933 32.0562 12.0351 31.999 12.0784 31.9428C12.1215 31.8866 12.166 31.8314 12.2119 31.7774C12.2577 31.7232 12.3049 31.6703 12.3533 31.6186C12.4017 31.5668 12.4513 31.5163 12.5023 31.4669C12.5531 31.4176 12.6051 31.3695 12.6584 31.3227C12.7115 31.2758 12.7659 31.2303 12.8214 31.1862C12.8768 31.142 12.9332 31.0993 12.9907 31.058C13.0482 31.0165 13.1067 30.9765 13.1662 30.9379C13.2256 30.8994 13.2859 30.8623 13.3472 30.8267C13.4084 30.7911 13.4705 30.757 13.5335 30.7244C13.5963 30.6918 13.6599 30.6607 13.7243 30.6313C13.7888 30.6018 13.8538 30.5739 13.9196 30.5477C13.9854 30.5214 14.0518 30.4966 14.1187 30.4735C14.1856 30.4505 14.2532 30.4291 14.3213 30.4092C14.3892 30.3894 14.4577 30.3714 14.5265 30.355C14.5954 30.3385 14.6646 30.3238 14.7343 30.3107C14.8038 30.2977 14.8737 30.2863 14.9439 30.2766Z" fill="#FEFEFE"/>
<path d="M36.9448 28.39L40.6149 28.3791C43.093 28.3756 45.5777 28.399 47.4795 30.2296C48.6795 31.3849 49.1408 32.8223 49.1614 34.4632C49.1848 36.333 48.7174 37.7939 47.4123 39.1484C45.5513 40.9078 43.0833 40.8631 40.6898 40.8594L36.9651 40.8555L36.9448 28.39Z" fill="#151515"/>
<path d="M39.5469 30.6039C41.428 30.5694 43.9925 30.3387 45.476 31.7147C46.2444 32.4273 46.5438 33.4121 46.5844 34.4343C46.6336 35.6697 46.3397 36.6663 45.4939 37.5837C43.8324 38.988 41.5322 38.6853 39.5084 38.6776L39.5103 33.5297C39.5096 32.5639 39.4481 31.563 39.5469 30.6039Z" fill="#FEFEFE"/>
<path d="M73.4479 28.502L75.932 28.5005C77.1477 30.2379 79.1593 32.7251 80.5779 34.3237C81.2166 35.0436 81.9092 35.7137 82.5509 36.4318C82.5803 33.8089 82.5251 31.1809 82.5407 28.5566L84.9427 28.5609C84.9437 29.8243 85.049 40.323 84.8071 40.7674L82.473 40.7954C81.8488 39.7985 80.9744 38.8635 80.2324 37.9513C78.7827 36.1693 77.352 34.3835 75.7908 32.6971L75.796 40.8027C75.0053 40.8552 74.203 40.8287 73.4106 40.8284L73.4479 28.502Z" fill="#151515"/>
<path d="M61.6026 28.486C64.7615 28.4194 67.9304 28.4691 71.0903 28.4834C71.047 29.1966 71.0589 29.919 71.0492 30.6339C68.7155 30.7006 66.3683 30.654 64.0332 30.6577C64.0574 31.6105 64.0686 32.5634 64.0669 33.5163C66.3082 33.4962 68.5494 33.4889 70.7906 33.4944L70.7898 35.6924L65.7336 35.6853L64.0994 35.6878L64.0934 38.7174L71.0691 38.6883L71.0667 40.8471L61.5894 40.8631L61.6026 28.486Z" fill="#151515"/>
<path d="M91.4902 28.2536C91.5978 28.2444 91.7047 28.2392 91.8126 28.2388C93.7172 28.2325 95.341 28.6466 96.7233 30.0176C96.2498 30.6321 95.7791 31.2383 95.255 31.8114C94.2182 30.9357 93.0095 30.4658 91.6406 30.4644C90.961 30.4638 90.286 30.6237 89.8016 31.137C89.6165 31.3332 89.4828 31.6188 89.5156 31.8951C89.5549 32.229 89.7247 32.4464 90.0007 32.6219C91.4019 33.5133 93.9094 33.2896 95.7364 34.7487C96.3875 35.2686 96.8571 35.941 96.9224 36.7894C96.9953 37.7371 96.7156 38.8899 96.0935 39.6115C95.1265 40.733 93.6931 40.9264 92.3109 41.0028C90.2783 40.9457 88.7034 40.6208 86.9086 39.6493C86.9264 38.8202 86.9539 37.9913 86.9914 37.1628C88.4048 38.1028 90.1013 38.74 91.8108 38.7608C92.5006 38.7691 93.1969 38.7062 93.705 38.1852C93.9292 37.9554 94.1939 37.6192 94.1398 37.2774C93.9511 36.0855 90.7278 35.5453 89.7483 35.2045C89.151 34.9967 88.5546 34.7334 88.049 34.3479C87.4026 33.8551 86.9676 33.1789 86.8787 32.3616C86.7869 31.5196 87.0516 30.5085 87.603 29.8584C88.5314 28.764 90.1265 28.3864 91.4902 28.2536Z" fill="#151515"/>
<path d="M27.9176 28.3899L30.089 28.3867C31.3407 31.2511 32.6233 34.1017 33.9365 36.9383C34.5241 38.2356 35.1686 39.5162 35.6875 40.8427C34.7979 40.8556 33.9066 40.8469 33.0168 40.8481C31.6378 37.9659 30.3298 35.0518 29.0927 32.1058L28.9605 31.9328C28.789 32.0666 24.8092 39.9642 24.3269 40.9321L21.667 40.8697C22.2268 39.365 23.1074 37.9466 23.8353 36.5161L27.9176 28.3899Z" fill="#151515"/>
<path d="M0.145328 28.3032L2.59516 28.2935C2.55755 31.7447 2.59115 35.201 2.59064 38.6528L8.60573 38.6293L8.60423 40.8817L0.16221 40.8647C0.14048 36.6807 0.0632548 32.4861 0.145328 28.3032Z" fill="#151515"/>
<path d="M51.1218 28.542L53.5743 28.5479L53.582 38.7548C55.7601 38.7366 57.9383 38.731 60.1166 38.7379C60.1278 39.425 60.2045 40.1849 60.0815 40.8593L51.1094 40.856C51.1158 36.764 50.9882 32.6288 51.1218 28.542Z" fill="#151515"/>
</g>
<defs>
<clipPath id="clip0_126_6">
<rect width="114" height="70" fill="white"/>
</clipPath>
</defs>
</svg>
