<svg width="30" height="30" viewBox="0 0 30 30" fill="none" xmlns="http://www.w3.org/2000/svg">
<path d="M3.75 27.5H26.25" stroke="#151515" stroke-width="1.5" stroke-linecap="round" stroke-linejoin="round"/>
<path d="M3.75 21.25C3.75 22.4285 3.75 23.0178 4.11612 23.3839C4.48223 23.75 5.07149 23.75 6.25 23.75C7.42851 23.75 8.01777 23.75 8.38388 23.3839C8.75 23.0178 8.75 22.4285 8.75 21.25V13.75C8.75 12.5715 8.75 11.9822 8.38388 11.6161C8.01777 11.25 7.42851 11.25 6.25 11.25C5.07149 11.25 4.48223 11.25 4.11612 11.6161C3.75 11.9822 3.75 12.5715 3.75 13.75V16.25" stroke="#151515" stroke-width="1.5" stroke-linecap="round"/>
<path d="M12.5 8.75C12.5 7.57149 12.5 6.98223 12.8661 6.61612C13.2322 6.25 13.8215 6.25 15 6.25C16.1785 6.25 16.7678 6.25 17.1339 6.61612C17.5 6.98223 17.5 7.57149 17.5 8.75V21.25C17.5 22.4285 17.5 23.0178 17.1339 23.3839C16.7678 23.75 16.1785 23.75 15 23.75C13.8215 23.75 13.2322 23.75 12.8661 23.3839C12.5 23.0178 12.5 22.4285 12.5 21.25V8.75Z" stroke="#151515" stroke-width="1.5"/>
<path d="M26.25 13.75V21.25C26.25 22.4285 26.25 23.0178 25.8839 23.3839C25.5178 23.75 24.9285 23.75 23.75 23.75C22.5715 23.75 21.9822 23.75 21.6161 23.3839C21.25 23.0178 21.25 22.4285 21.25 21.25V5C21.25 3.82149 21.25 3.23223 21.6161 2.86612C21.9822 2.5 22.5715 2.5 23.75 2.5C24.9285 2.5 25.5178 2.5 25.8839 2.86612C26.25 3.23223 26.25 3.82149 26.25 5V8.75" stroke="#151515" stroke-width="1.5" stroke-linecap="round"/>
</svg>
