<svg width="30" height="30" viewBox="0 0 30 30" fill="none" xmlns="http://www.w3.org/2000/svg">
<circle cx="15" cy="15" r="3.75" stroke="#151515" stroke-width="1.5"/>
<path d="M4.57665 13.299C5.16733 13.6701 5.5474 14.3023 5.54739 14.9999C5.54739 15.6975 5.16732 16.3298 4.57665 16.7009C4.1747 16.9534 3.91573 17.1553 3.73147 17.3954C3.32784 17.9214 3.1497 18.5863 3.23624 19.2436C3.30115 19.7367 3.59236 20.2411 4.17479 21.2499C4.75722 22.2586 5.04843 22.763 5.44295 23.0658C5.96898 23.4694 6.6338 23.6475 7.29117 23.561C7.59122 23.5215 7.89547 23.3982 8.31507 23.1764C8.93192 22.8504 9.6696 22.8374 10.2738 23.1863C10.878 23.5351 11.2355 24.1804 11.2615 24.8775C11.2793 25.3519 11.3246 25.6771 11.4404 25.9567C11.6942 26.5693 12.1808 27.056 12.7934 27.3097C13.2528 27.5 13.8353 27.5 15.0001 27.5C16.165 27.5 16.7474 27.5 17.2068 27.3097C17.8194 27.056 18.3061 26.5693 18.5598 25.9567C18.6756 25.6771 18.721 25.3519 18.7387 24.8776C18.7648 24.1804 19.1223 23.5351 19.7265 23.1863C20.3307 22.8375 21.0683 22.8505 21.6851 23.1765C22.1047 23.3983 22.409 23.5216 22.7091 23.5611C23.3664 23.6477 24.0313 23.4695 24.5573 23.0659C24.9518 22.7632 25.243 22.2588 25.8254 21.25C26.0847 20.8009 26.2863 20.4517 26.4359 20.1591M25.4236 16.701C24.8329 16.3299 24.4528 15.6977 24.4528 15.0001C24.4527 14.3024 24.8328 13.6701 25.4236 13.299C25.8254 13.0464 26.0844 12.8446 26.2686 12.6045C26.6723 12.0785 26.8504 11.4136 26.7638 10.7563C26.6989 10.2633 26.4077 9.75886 25.8253 8.75006C25.2429 7.74127 24.9517 7.23687 24.5571 6.93415C24.0311 6.53051 23.3663 6.35237 22.7089 6.43892C22.4089 6.47842 22.1046 6.60175 21.6849 6.82354C21.0681 7.14954 20.3305 7.16256 19.7264 6.8137C19.1223 6.46488 18.7648 5.81962 18.7387 5.12253C18.721 4.64815 18.6757 4.32293 18.5598 4.04329C18.3061 3.43072 17.8194 2.94404 17.2068 2.6903C16.7474 2.5 16.165 2.5 15.0001 2.5C13.8353 2.5 13.2528 2.5 12.7934 2.6903C12.1808 2.94404 11.6942 3.43072 11.4404 4.04329C11.3246 4.32291 11.2793 4.6481 11.2615 5.12242C11.2355 5.81958 10.8779 6.46488 10.2738 6.8137C9.66958 7.16252 8.93197 7.14949 8.31518 6.8235C7.89553 6.6017 7.59125 6.47836 7.29118 6.43885C6.63381 6.35231 5.96899 6.53045 5.44296 6.93408C5.04844 7.23681 4.75723 7.74121 4.1748 8.75C3.91551 9.19911 3.71394 9.54824 3.56435 9.84091" stroke="#151515" stroke-width="1.5" stroke-linecap="round"/>
</svg>
